<svg xmlns="http://www.w3.org/2000/svg" viewBox="0 0 1000 1000">
    <g fill="hsl(180, 32%, 77%)">
        <path d="M714.4 193.8h153.1L683.8 10v153.1c0 16.9 13.7 30.7 30.6 30.7z"/>
        <path d="M653.1 193.8V10h-490a30.6 30.6 0 00-30.6 30.6v918.8a30.6 30.6 0 0030.6 30.6h673.8a30.6 30.6 0 0030.6-30.6v-735H683.8c-17 0-30.7-13.7-30.7-30.6zm-283.3-23H523a23 23 0 010 46H369.8a23 23 0 01-23-23c.1-12.7 10.4-23 23-23zm-84.3 683.9a23 23 0 1123-23c-.1 12.7-10.3 23-23 23zm0-212.7a23 23 0 1123-23c-.1 12.7-10.3 23-23 23zm0-212.6a23 23 0 110-46 23 23 0 010 46zm0-212.7a23 23 0 1123-23c-.1 12.7-10.3 23-23 23zm451.8 638H369.8a23 23 0 010-46h367.5a23 23 0 010 46zm0-212.7H369.8a23 23 0 010-46h367.5a23 23 0 010 46zm23-235.6a23 23 0 01-23 23H369.8a23 23 0 010-46h367.5c12.7.1 23 10.3 23 23z"/>
    </g>
</svg>
